<?xml version="1.0" encoding="utf-8"?>
<!-- Generator: Adobe Illustrator 16.0.0, SVG Export Plug-In . SVG Version: 6.00 Build 0)  -->
<!DOCTYPE svg PUBLIC "-//W3C//DTD SVG 1.1//EN" "http://www.w3.org/Graphics/SVG/1.1/DTD/svg11.dtd">
<svg version="1.1" id="Layer_1" xmlns="http://www.w3.org/2000/svg" xmlns:xlink="http://www.w3.org/1999/xlink" x="0px" y="0px"
	 width="191.947px" height="87.828px" viewBox="0 0 191.947 87.828" enable-background="new 0 0 191.947 87.828"
	 xml:space="preserve">
<g>
	<defs>
		<rect id="SVGID_1_" x="5.247" y="6.682" width="197.052" height="76"/>
	</defs>
	<clipPath id="SVGID_2_">
		<use xlink:href="#SVGID_1_"  overflow="visible"/>
	</clipPath>
	<path clip-path="url(#SVGID_2_)" fill="#FFFFFF" d="M124.827,70.138c14.06-14.06,14.06-36.853,0-50.912
		c-14.059-14.059-36.852-14.059-50.911,0c-14.059,14.06-14.059,36.853,0,50.912C87.975,84.196,110.769,84.196,124.827,70.138"/>
	
		<path clip-path="url(#SVGID_2_)" fill="none" stroke="#000000" stroke-linecap="round" stroke-linejoin="round" stroke-miterlimit="10" d="
		M124.828,70.138c14.059-14.059,14.059-36.854,0-50.912c-14.06-14.059-36.853-14.059-50.912,0
		c-14.059,14.059-14.059,36.854,0,50.912C87.975,84.196,110.769,84.196,124.828,70.138"/>
	<g clip-path="url(#SVGID_2_)">
		<g>
			<path d="M92.207,46.636v-2.379h6.174v-6.216h2.421v6.216h6.173v2.379h-6.173v6.202h-2.421v-6.202H92.207z"/>
		</g>
	</g>
	
		<line clip-path="url(#SVGID_2_)" fill="none" stroke="#000000" stroke-width="2" stroke-linecap="round" stroke-linejoin="round" stroke-miterlimit="10" x1="8.247" y1="17.682" x2="52.48" y2="30.788"/>
	<polygon clip-path="url(#SVGID_2_)" points="61.685,33.515 53.503,27.336 51.458,34.239 	"/>
	<polygon clip-path="url(#SVGID_2_)" fill="none" stroke="#000000" stroke-width="2" stroke-miterlimit="10" points="61.685,33.515 
		53.503,27.336 51.458,34.239 	"/>
	
		<line clip-path="url(#SVGID_2_)" fill="none" stroke="#000000" stroke-width="2" stroke-linecap="round" stroke-linejoin="round" stroke-miterlimit="10" x1="8.247" y1="71.682" x2="52.48" y2="58.575"/>
	<polygon clip-path="url(#SVGID_2_)" points="61.685,55.849 51.458,55.124 53.503,62.027 	"/>
	<polygon clip-path="url(#SVGID_2_)" fill="none" stroke="#000000" stroke-width="2" stroke-miterlimit="10" points="61.685,55.849 
		51.458,55.124 53.503,62.027 	"/>
	
		<line clip-path="url(#SVGID_2_)" fill="none" stroke="#000000" stroke-width="2" stroke-linecap="round" stroke-linejoin="round" stroke-miterlimit="10" x1="135.372" y1="44.682" x2="172.699" y2="44.682"/>
	<polygon clip-path="url(#SVGID_2_)" points="182.3,44.682 172.699,41.082 172.699,48.281 	"/>
	<polygon clip-path="url(#SVGID_2_)" fill="none" stroke="#000000" stroke-width="2" stroke-miterlimit="10" points="182.3,44.682 
		172.699,41.082 172.699,48.281 	"/>
</g>
</svg>
